<svg viewBox="0 0 24 24" fill="none" xmlns="http://www.w3.org/2000/svg"><g clip-path="url(#clip0_4725_61343)"><rect x="2" y="2" width="20" height="20" rx="3.33333" fill="white"></rect><g filter="url(#filter0_f_4725_61343)"><circle cx="7.05859" cy="19.6367" r="8.18359" fill="#4DEE9E"></circle></g><g filter="url(#filter1_f_4725_61343)"><circle cx="2.17578" cy="9.75391" r="9.90234" fill="#F6F7FA"></circle></g><g filter="url(#filter2_f_4725_61343)"><circle cx="15.2422" cy="26.2188" r="9.14062" fill="#D6E807"></circle></g><g clip-path="url(#clip1_4725_61343)"><path d="M20.8734 7.51383C21.721 6.79517 21.553 5.18794 20.5028 3.92051C19.4525 2.65309 17.9133 2.21173 17.0701 2.93079C16.2268 3.64984 16.3905 5.25668 17.4407 6.52411C18.491 7.79153 20.0255 8.23445 20.8734 7.51383Z" fill="black"></path><path d="M3.12632 7.51383C2.27919 6.79517 2.44682 5.18794 3.49753 3.92051C4.54825 2.65309 6.08622 2.21173 6.92984 2.93079C7.77346 3.64984 7.60934 5.25668 6.55863 6.52411C5.50792 7.79153 3.97385 8.23445 3.12632 7.51383Z" fill="black"></path><path d="M5.89959 14.7215C5.05272 14.0024 5.2203 12.395 6.27069 11.1278C7.32108 9.86061 8.85858 9.41764 9.70194 10.1364C10.5453 10.8551 10.3812 12.4626 9.33123 13.7301C8.28123 14.9977 6.74686 15.4403 5.89959 14.7215Z" fill="black"></path><path d="M14.6671 13.7301C13.6171 12.4622 13.4495 10.8547 14.2964 10.1364C15.1432 9.41803 16.6792 9.85982 17.7276 11.1278C18.776 12.3958 18.9456 14.0028 18.0987 14.7215C17.2518 15.4403 15.7135 14.9938 14.6671 13.7301Z" fill="black"></path><path d="M11.9983 15.1095C12.7327 15.1095 13.3264 14.7416 13.3264 14.2892C13.3264 13.8369 12.7327 13.4689 11.9983 13.4689C11.2639 13.4689 10.6702 13.8369 10.6702 14.2892C10.6702 14.7416 11.2639 15.1095 11.9983 15.1095Z" fill="black"></path></g></g><defs><filter id="filter0_f_4725_61343" x="-8.9375" y="3.64063" width="31.9922" height="31.9922" filterUnits="userSpaceOnUse" color-interpolation-filters="sRGB"><feFlood flood-opacity="0" result="BackgroundImageFix"></feFlood><feBlend mode="normal" in="SourceGraphic" in2="BackgroundImageFix" result="shape"></feBlend><feGaussianBlur stdDeviation="3.90625" result="effect1_foregroundBlur_4725_61343"></feGaussianBlur></filter><filter id="filter1_f_4725_61343" x="-11.6328" y="-4.05469" width="27.6172" height="27.6172" filterUnits="userSpaceOnUse" color-interpolation-filters="sRGB"><feFlood flood-opacity="0" result="BackgroundImageFix"></feFlood><feBlend mode="normal" in="SourceGraphic" in2="BackgroundImageFix" result="shape"></feBlend><feGaussianBlur stdDeviation="1.95312" result="effect1_foregroundBlur_4725_61343"></feGaussianBlur></filter><filter id="filter2_f_4725_61343" x="-1.71094" y="9.26563" width="33.9062" height="33.9062" filterUnits="userSpaceOnUse" color-interpolation-filters="sRGB"><feFlood flood-opacity="0" result="BackgroundImageFix"></feFlood><feBlend mode="normal" in="SourceGraphic" in2="BackgroundImageFix" result="shape"></feBlend><feGaussianBlur stdDeviation="3.90625" result="effect1_foregroundBlur_4725_61343"></feGaussianBlur></filter><clipPath id="clip0_4725_61343"><rect x="2" y="2" width="20" height="20" rx="3.33333" fill="white"></rect></clipPath><clipPath id="clip1_4725_61343"><rect width="20" height="13.8281" fill="white" transform="translate(2 2)"></rect></clipPath></defs></svg>